<?xml version="1.0" standalone="no"?><!DOCTYPE svg PUBLIC "-//W3C//DTD SVG 1.1//EN" "http://www.w3.org/Graphics/SVG/1.1/DTD/svg11.dtd"><svg t="1618297870997" class="icon" viewBox="0 0 1024 1024" version="1.1" xmlns="http://www.w3.org/2000/svg" p-id="1990" xmlns:xlink="http://www.w3.org/1999/xlink" width="200" height="200"><defs><style type="text/css"></style></defs><path d="M22.297822 445.156528h716.730007c12.198809 0 22.297822-9.999024 22.297823-22.297823 0-12.198809-9.999024-22.297822-22.297823-22.297822H22.297822C9.999024 400.660873 0 410.659896 0 422.958695c0 12.198809 9.999024 22.197832 22.297822 22.197833z" fill="" p-id="1991"></path><path d="M511.950005 289.371741c12.298799 0 22.297822-9.999024 22.297822-22.297822 0-122.688019 99.890245-222.578264 222.578264-222.578264s222.578264 99.890245 222.578264 222.578264-99.890245 222.578264-222.578264 222.578263c-0.399961 0-0.699932 0.09999-1.099892 0.099991-0.399961 0-0.699932-0.09999-1.099893-0.099991H220.378479c-12.198809 0-22.297822 9.999024-22.297823 22.297823s9.999024 22.297822 22.297823 22.297822h534.247827c0.399961 0 0.699932-0.09999 1.099893-0.09999 0.399961 0 0.699932 0.09999 1.099892 0.09999 147.285617 0 267.073919-119.788302 267.073919-267.073918S904.111708 0 756.826091 0 489.652182 119.788302 489.652182 267.073919c0 12.298799 9.999024 22.297822 22.297823 22.297822zM408.460111 667.834782c-0.299971 0-0.599941-0.09999-0.799922-0.09999H22.297822C9.999024 667.734792 0 677.733815 0 690.032614c0 12.198809 9.999024 22.297822 22.297822 22.297822h382.862612c73.592813 0 133.586954 59.894151 133.586954 133.586955s-59.894151 133.586954-133.586954 133.586954S271.573479 919.610194 271.573479 845.917391c0-12.298799-9.999024-22.297822-22.297822-22.297823S226.977834 833.618592 226.977834 845.917391c0 98.190411 79.892198 178.082609 178.082609 178.082609S583.143052 944.107802 583.143052 845.917391c0-97.190509-78.092374-176.282785-174.682941-178.082609zM1001.602187 578.743482H284.87218c-12.198809 0-22.297822 9.999024-22.297822 22.297823s9.999024 22.297822 22.297822 22.297822h716.730007c12.198809 0 22.297822-9.999024 22.297823-22.297822s-9.999024-22.297822-22.297823-22.297823z" fill="" p-id="1992"></path></svg>